<!DOCTYPE svg PUBLIC "-//W3C//DTD SVG 1.1//EN" "http://www.w3.org/Graphics/SVG/1.1/DTD/svg11.dtd">

<!-- Uploaded to: SVG Repo, www.svgrepo.com, Transformed by: SVG Repo Mixer Tools -->
<svg fill="#F8F2F0" version="1.1" id="Capa_1" xmlns="http://www.w3.org/2000/svg" xmlns:xlink="http://www.w3.org/1999/xlink" width="65px" height="65px" viewBox="0 0 235.529 235.529" xml:space="preserve">

<g id="SVGRepo_bgCarrier" stroke-width="0"/>

<g id="SVGRepo_tracerCarrier" stroke-linecap="round" stroke-linejoin="round"/>

<g id="SVGRepo_iconCarrier"> <g> <path d="M73.976,9.086l35.155,92.357L122.8,61.988l15.377-12.818l3.507-12.125l8.716,9.053l29.379,16.36l-5.531,12.75l-9.152-3.841 l-14.19,0.479l0.253,8.173l11.553,24.291l1.916,13.238l15.869-8.175l9.133,5.058l2.16,12.748l5.759,1.442l29.102,26.677 l-10.604,6.749l-0.713-6.749l-16.583-16.582l-6.729,0.484l-3.595,13.445l-13.249,10.611l-3.098-11.577l6.725,0.729l5.058-11.537 l-24.518,2.865l-24.714,15.424l-28.526,3.351l-2.09-6.02L87.922,177.18l-30.298,13.225l-23.321,32.696l-12.742,3.374l-0.244-11.793 l6.268,2.893l14.647-32.696l6.255-0.477l7.945-6.732l-16.114,3.843l-17.532,28.602l-12.75,1.687l1.204-12.739l7.191,4.336 L34.79,171.89l17.32-9.842l4.031-31.739L27.346,98.572h11.289L8.813,58.642l17.31,10.105L12.178,16.324l54.014,62.66l-7.616-33.827 L68.68,58.873L73.976,9.086 M73.992,0.254c-0.391,0-0.767,0.016-1.146,0.07c-4.063,0.509-7.222,3.759-7.658,7.826l-3.086,28.896 c-1.124-0.482-2.316-0.729-3.542-0.729c-1.23,0-2.464,0.254-3.657,0.801c-3.61,1.641-5.668,5.454-5.071,9.327L18.882,10.527 c-1.726-2-4.198-3.065-6.705-3.065c-1.403,0-2.801,0.329-4.112,1.02c-3.643,1.915-5.478,6.091-4.412,10.088l8.47,31.847 c-1.064-0.431-2.164-0.629-3.28-0.629c-2.45,0-4.875,1.004-6.6,2.944c-2.795,3.144-3.001,7.82-0.487,11.188l20.472,27.411 c-1.265,0.906-2.306,2.14-2.952,3.639c-1.429,3.184-0.832,6.931,1.523,9.521l26.046,28.715l-2.96,23.319l-13.469,7.666 c-1.485,0.83-2.691,2.116-3.471,3.611l-12.05,23.199c-1.146-0.537-2.427-0.806-3.657-0.806c-1.393,0-2.741,0.324-4.005,0.949 c-2.707,1.366-4.52,4.036-4.805,7.049l-1.198,12.748c-0.26,2.677,0.719,5.326,2.659,7.197c1.657,1.595,3.869,2.477,6.146,2.477 c0.379,0,0.764-0.016,1.146-0.092l1.414-0.169l0.157,6.271c0.054,2.705,1.35,5.238,3.508,6.877 c1.549,1.175,3.431,1.771,5.324,1.771c0.755,0,1.521-0.084,2.262-0.276l12.734-3.374c1.986-0.537,3.745-1.748,4.937-3.419 l21.917-30.704l28.04-12.243c1.347-0.597,2.531-1.519,3.438-2.681l8.991-11.538c0.723,0.177,1.475,0.265,2.206,0.265 c0.347,0,0.699-0.012,1.058-0.06l28.521-3.358c1.294-0.145,2.513-0.581,3.639-1.271l23.038-14.366l0.922-0.108 c0.028,0.604,0.12,1.21,0.289,1.795l3.113,11.55c0.781,2.877,2.954,5.186,5.783,6.095c0.901,0.293,1.823,0.438,2.749,0.438 c1.995,0,3.955-0.657,5.53-1.924l13.244-10.607c1.475-1.167,2.517-2.794,3.006-4.617l1.166-4.348l8.756,8.748l0.397,3.627 c0.316,3.058,2.172,5.71,4.953,7.045c1.202,0.573,2.521,0.857,3.818,0.857c1.68,0,3.318-0.461,4.753-1.387l10.58-6.748 c2.32-1.471,3.819-3.939,4.071-6.692c0.229-2.741-0.821-5.418-2.829-7.298l-29.086-26.661c-1.099-0.99-2.417-1.695-3.835-2.056 l-0.16-0.061l-1.203-7.041c-0.437-2.645-2.079-4.943-4.424-6.253l-9.141-5.055c-1.318-0.742-2.806-1.108-4.268-1.108 c-1.379,0-2.785,0.321-4.072,0.98l-4.82,2.504l-0.161-0.981c-0.147-0.862-0.4-1.709-0.777-2.519l-9.598-20.127l2.368-0.081 l7.362,3.086c1.11,0.479,2.268,0.708,3.418,0.708c3.427,0,6.677-2.004,8.104-5.354l5.526-12.742 c1.811-4.152,0.172-9.021-3.8-11.251l-28.244-15.707l-7.798-8.093c-1.699-1.768-4.008-2.717-6.36-2.717 c-0.722,0-1.442,0.094-2.132,0.261c-3.09,0.765-5.49,3.1-6.372,6.113l-2.729,9.521l-13.329,11.07 c-1.23,1.02-2.15,2.369-2.691,3.896l-5.707,16.466L82.246,5.882C80.927,2.474,77.623,0.254,73.992,0.254L73.992,0.254z"/> </g> </g>

</svg>